<?xml version="1.0" encoding="UTF-8"?>
<!DOCTYPE svg PUBLIC "-//W3C//DTD SVG 1.0//EN" "http://www.w3.org/TR/2001/REC-SVG-20010904/DTD/svg10.dtd">
<!-- Creator: CorelDRAW 2017 -->
<svg xmlns="http://www.w3.org/2000/svg" xml:space="preserve" width="356px" height="200px" version="1.0" shape-rendering="geometricPrecision" text-rendering="geometricPrecision" image-rendering="optimizeQuality" fill-rule="evenodd" clip-rule="evenodd" viewBox="0 0 35600 20025" xmlns:xlink="http://www.w3.org/1999/xlink">
 <g id="Layer_x0020_1">
  <metadata id="CorelCorpID_0Corel-Layer"/>
  <g id="_1688550540752">
   <path fill="#E6E7E8" d="M0 0l35600 0 0 20025 -35600 0 0 -20025z"/>
   <path fill="#373435" fill-opacity="0.031373" d="M2102 17538c67,103 111,202 155,311 31,64 48,183 198,183 44,0 107,-14 163,-45 63,-33 111,-82 135,-159l61 -201 145 -72 10 10c-19,76 -24,148 -24,206 0,169 145,233 262,233 68,0 128,-33 128,-95 0,-81 -34,-216 -78,-338 68,-68 136,-136 214,-191l12 6c34,144 53,286 53,381 0,92 -41,195 -75,263 -70,132 -194,237 -344,237 -114,0 -240,-57 -327,-163l-5 0c-83,101 -209,194 -412,194l-63 0c-10,134 -39,229 -82,313 -122,237 -480,404 -817,404 -470,0 -705,-272 -705,-632 0,-223 72,-431 184,-577l92 37c-70,134 -116,261 -116,385 0,338 274,499 591,499 293,0 657,-188 722,-404 -24,-237 -114,-348 -250,-565 42,-72 95,-144 160,-220l13 0 0 0zm5414 -1273c99,62 196,136 290,221 -53,74 -118,142 -201,201 -94,-76 -189,-142 -286,-212 66,-74 131,-146 197,-210zm51 925c-160,0 -291,105 -291,183 0,167 320,219 702,217 -48,-196 -215,-400 -411,-400zm-359 894c208,0 390,-6 528,-41 155,-39 286,-118 286,-171 0,-15 0,-31 -5,-46 -87,9 -186,9 -274,9 -281,0 -496,-64 -581,-223 -22,-43 -36,-93 -36,-148 0,-153 65,-303 181,-406 97,-84 204,-138 313,-138 196,0 354,159 463,408 60,136 101,292 101,490 0,132 -36,243 -118,326 -153,148 -434,204 -865,204l-197 0 0 0 -51 0c-106,0 -184,-19 -244,-66l-10 0c2,24 5,49 5,72 0,97 -32,220 -97,319 -192,286 -400,410 -579,410 -182,0 -405,-70 -606,-161l36 -70c66,27 155,45 279,45 325,0 751,-313 804,-617 -12,-25 -33,-58 -65,-93 -94,-113 -155,-208 -211,-307 49,-95 92,-171 134,-239l16 -2c139,282 265,445 546,445l43 0 0 0 204 0 0 0zm-1406 299c24,-130 26,-276 26,-412l0 -202c0,-377 -48,-925 -87,-1281 68,-75 163,-161 238,-219l21 6c51,449 64,971 64,1450 0,126 -5,250 -17,340 -8,114 -73,200 -214,332l-31 -14 0 0zm-1447 -596c7,177 94,317 397,317 189,0 349,-49 526,-133 31,-15 48,-33 48,-50 0,-111 -84,-257 -228,-391 -138,-126 -322,-237 -494,-311 -58,-25 -77,-52 -77,-76 0,-52 68,-159 123,-235l20 -2c196,103 416,255 579,426 148,157 240,315 240,488 0,128 -39,250 -102,361 -216,109 -446,191 -674,191 -276,0 -465,-129 -465,-434 0,-33 0,-85 12,-151l95 0 0 0zm-500 -502l172 278c63,103 121,214 121,391l0 227c0,183 -117,379 -306,572 -147,132 -278,188 -399,188 -180,0 -386,-56 -623,-159l26 -70c76,21 163,37 270,37 341,-2 690,-251 850,-556 19,-35 27,-68 27,-91 0,-35 -20,-74 -34,-109 -87,-165 -184,-315 -291,-453 56,-88 111,-173 172,-257l15 2 0 0z"/>
   <path fill="#373435" fill-opacity="0.078431" d="M10425 20025l136 0 501 0 120 0 10 0 9 0 7 0 61 0 296 0 62 0 2 0 298 0 281 0 23 0 221 0 1 0 409 0 254 0 340 0 383 0 153 0 485 0 254 0 8 0 81 0 19 0 312 0 498 0 6 0 175 0 365 0 142 0 472 0 929 0 401 0 253 0 571 0 620 0 2015 0 7411 -8066 -121 55 -126 52 -132 48 -135 43 -140 39 -141 34 -145 29 -145 22 -147 16 -147 10 -147 2 -146 -6 -144 -13 -142 -22 -139 -31 -136 -40 -62 -24 -56 -25 -50 -28 -47 -30 -43 -33 -42 -36 -42 -38 -43 -42 -75 -87 -64 -99 -54 -111 -44 -122 -34 -131 -8 -43 2676 -2912 -1331 0 -1379 1501 0 -1255 4 -99 1 -69 -13 -45 -39 -25 -77 -11 -125 -2 -185 3 -256 2 0 -285 825 -898 59 -73 54 -77 48 -83 43 -86 37 -90 31 -92 27 -95 21 -96 17 -98 11 -98 7 -98 2 -98 -3048 3318 -2 -196 -1 -186 -2 -163 -1 -134 0 -101 -14 -75 -39 -55 -60 -41 -77 -32 -90 -28 -100 -29 -33 -12 1634 -1779 -81 87 -74 59 -87 49 -98 38 -107 27 -112 16 -116 3 -117 -9 -115 -23 -111 -36 -104 -50 -95 -65 -84 -79 -69 -96 -53 -111 -33 -127 -12 -145 0 -148 4 -75 11 -73 17 -71 23 -66 28 -62 33 -57 35 -51 39 -45 -2888 3144 -15 -15 -124 -75 -147 -48 -169 -18 -148 0 -184 18 -159 48 -135 75 -111 98 -1287 1401 -38 -65 -60 -128 -42 -124 -28 -121 -16 -124 -7 -128 -2 -136 0 -148 4 -91 14 -98 22 -100 26 -100 31 -96 33 -88 34 -78 33 -63 94 -141 106 -128 -10850 11808 48 0 458 0 1089 0 107 0 262 0 148 0 472 0 42 0 17 0 66 0 192 0 78 0 0 0zm-3736 -10368l-6689 7279 0 292 0 7 0 4 0 1170 0 1068 0 548 417 0 828 0 60 0 1647 0 118 0 161 0 297 0 109 0 409 0 42 0 622 0 180 0 157 0 109 0 1290 0 201 0 329 0 3 0 8844 -9625 -49 50 -4053 4053 -36 36 -37 35 -39 32 -43 29 -46 24 -51 19 -58 11 -66 4 -144 -5 -115 -19 -94 -33 -82 -49 -80 -67 -86 -87 -103 -108 -127 -130 -57 -58 3332 -3627 54 -71 38 -68 25 -68 16 -71 7 -74 3 -81 0 -89 -14 -113 -40 -110 -61 -104 -80 -94 -94 -80 -103 -61 -111 -40 -113 -14 -314 19 -1041 -1029 9 -84 10 -86 6 -88 -3 -90 -14 -92 -31 -95 -53 -97 -78 -101 -80 -74 -86 -55 -91 -39 -94 -23 -98 -11 -100 -1 -101 6 -101 13 -1066 -1079 45 -58 62 -69 -3506 3816 2 -114 10 -94 18 -74 28 -61 40 -55 0 0z"/>
   <path fill="#FF5722" d="M9990 6366l1066 1079c270,-38 546,-42 751,184 246,272 173,511 154,733l1041 1029 314 -19c301,0 616,315 616,616 0,252 3,387 -214,599 -255,247 -684,257 -967,-10l-80 -92c-234,-310 -110,-525 -94,-719 -177,-118 -840,-897 -985,-936l0 2538c95,64 188,107 257,210 340,505 30,1145 -578,1145 -835,0 -878,-1208 -246,-1355l0 -2612c-123,-10 -241,-136 -310,-231 -184,-251 -140,-440 -84,-680l-1053 -1066c-120,82 -2400,2387 -2686,2673 -246,246 -301,244 -301,610 0,297 299,508 462,671l2882 2883c199,199 380,380 579,579 381,381 398,498 831,498 186,0 279,-92 376,-190l4053 -4053c144,-142 178,-219 178,-462 0,-300 -309,-519 -474,-684l-3486 -3486c-252,-252 -375,-486 -770,-486 -297,0 -508,299 -671,462 -139,139 -469,436 -561,572l0 0z"/>
   <path fill="#1B447D" d="M19032 12624l1147 84c481,73 922,-55 922,384 0,513 -1108,444 -1478,444 -378,0 -940,-133 -771,-599 46,-128 156,-225 180,-313zm1059 -2562l-222 0c-942,0 -946,-1528 99,-1528l148 0c964,0 953,1528 -25,1528zm-2192 -862c0,412 -11,668 236,1045 136,209 284,342 503,457 -276,412 -789,525 -789,1158 0,267 193,424 370,518 -218,324 -468,305 -468,985 0,950 1478,1060 2217,1060 666,0 1233,-108 1684,-337 501,-254 804,-678 804,-1339 0,-989 -854,-1183 -1650,-1232 -166,-10 -381,-41 -542,-49 -383,-20 -717,-49 -1109,-49 12,-149 206,-316 246,-468 1005,234 2306,-5 2583,-1113 80,-319 65,-582 -48,-880 -56,-145 -137,-274 -219,-397l412 -31c114,-16 285,-16 401,-43l0 -764 -1650 0c-134,0 -238,-43 -380,-63 -902,-131 -1940,35 -2404,828 -85,146 -197,483 -197,714l0 0z"/>
   <path fill="#1B447D" d="M25388 7623l0 813c789,0 694,-61 690,246l0 2267c-3,418 100,780 313,992 117,116 209,196 385,256 714,239 1602,65 2233,-238l-246 -813c-275,132 -1306,394 -1306,-370l0 -2340 1331 0 0 -838c0,-57 -17,-74 -74,-74l-1257 0 0 -1281c0,-56 -17,-74 -73,-74l-814 0c0,518 -191,1083 -656,1315 -139,69 -332,139 -526,139l0 0z"/>
   <path fill="#1B447D" d="M22924 8362c284,150 592,115 592,345 0,440 36,2521 -25,2784 -140,32 -402,74 -567,74l0 739 2562 0c0,-851 68,-720 -269,-765 -98,-14 -227,-40 -322,-48l0 -3573c2,-345 63,-295 -419,-295 -484,0 -969,0 -1453,0 -37,158 -99,560 -99,739l0 0z"/>
   <path fill="#1B447D" d="M23269 6046l0 148c0,818 1034,891 1387,549 248,-240 239,-403 239,-721 0,-394 -340,-690 -665,-690l-228 0c-195,5 -374,39 -543,214 -106,110 -190,296 -190,500z"/>
  </g>
 </g>
</svg>